<?xml version="1.0" standalone="no"?>
<!DOCTYPE svg PUBLIC "-//W3C//DTD SVG 20010904//EN"
 "http://www.w3.org/TR/2001/REC-SVG-20010904/DTD/svg10.dtd">
<svg version="1.0" xmlns="http://www.w3.org/2000/svg"
 width="194.000000pt" height="194.000000pt" viewBox="0 0 194.000000 194.000000"
 preserveAspectRatio="xMidYMid meet">
<metadata>
Created by potrace 1.11, written by Peter Selinger 2001-2013
</metadata>
<g transform="translate(0.000000,194.000000) scale(0.100000,-0.100000)"
fill="#000000" stroke="none">
<path d="M442 1514 c-226 -46 -378 -297 -303 -502 43 -117 111 -196 212 -245
66 -33 86 -37 164 -39 74 -1 134 15 202 52 57 32 69 26 53 -29 -5 -17 -7 -31
-4 -31 2 0 -7 -22 -20 -49 -45 -88 -120 -132 -226 -134 -54 -1 -74 4 -118 28
-30 16 -66 46 -80 67 l-27 38 -78 0 -77 0 15 -37 c95 -229 381 -315 588 -176
96 64 157 156 177 266 6 30 9 209 8 412 l-3 360 -75 0 c-59 0 -75 -3 -76 -15
-1 -8 -2 -21 -3 -28 -1 -8 -19 -2 -53 17 -92 51 -178 65 -276 45z m193 -164
c51 -24 101 -77 123 -129 19 -47 18 -146 -2 -194 -60 -138 -232 -198 -358
-124 -57 33 -82 62 -108 121 -61 138 17 304 161 344 51 14 135 6 184 -18z"/>
<path d="M1360 1518 c-126 -19 -246 -107 -305 -224 -28 -55 -30 -67 -30 -169
0 -100 3 -115 27 -166 29 -58 92 -132 143 -166 110 -74 266 -83 390 -22 39 19
74 36 78 38 5 2 8 -5 7 -15 -5 -42 -2 -44 75 -44 l75 0 0 374 0 375 -75 -1
c-74 -1 -75 -1 -76 -27 -1 -14 -1 -30 0 -35 1 -5 -8 -2 -21 7 -80 57 -199 88
-288 75z m145 -158 c129 -49 194 -206 140 -336 -7 -18 -29 -50 -49 -72 -118
-130 -328 -100 -412 60 -26 49 -28 162 -4 215 54 121 200 181 325 133z"/>
</g>
</svg>
